<?xml version="1.0"?>
<svg xmlns="http://www.w3.org/2000/svg" xmlns:xlink="http://www.w3.org/1999/xlink" xmlns:svgjs="http://svgjs.com/svgjs" version="1.1" width="512" height="512" x="0" y="0" viewBox="0 0 512.025 512.025" style="enable-background:new 0 0 512 512" xml:space="preserve" class=""><g><g xmlns="http://www.w3.org/2000/svg" clip-rule="evenodd" fill-rule="evenodd"><path d="m509.96 353.405-.288-.497c-23.983-41.533-76.543-56.313-119.661-33.646l-72.366 38.043c-2.387-14.573-11.304-27.147-25.318-35.237l-61.27-35.374c-8.697-6.113-18.881-9.34-29.508-9.34h-85.479v-16.175c0-8.284-6.716-15-15-15h-86.02c-8.284 0-15 6.716-15 15v208.873c0 8.284 6.716 15 15 15h86.021c8.284 0 15-6.716 15-15v-29.898h19.016l111.682 64.61c8.365 4.839 17.076 7.262 25.531 7.262 8.11 0 15.985-2.23 23.09-6.695l209.566-131.718c6.831-4.294 9.042-13.222 5.004-20.208zm-423.889 101.646h-56.021v-178.872h56.021zm193.355 24.88c-6.21 3.902-13.018 1.536-17.634-1.135l-115.167-66.626c-2.283-1.321-4.874-2.016-7.512-2.016h-23.042v-102.8h85.479c4.529 0 8.872 1.417 12.559 4.099.426.31.867.597 1.323.86l61.896 35.736c7.291 4.209 10.987 10.006 10.987 17.231 0 8.206-4.963 16.803-12.07 20.906-6.257 3.613-13.126 3.309-20.417-.899l-57.025-32.924c-2.28-1.316-4.867-2.01-7.5-2.01h-25.253c-8.284 0-15 6.716-15 15s6.716 15 15 15h21.233l53.545 30.914c8.532 4.926 17.56 7.395 26.436 7.395 8.305 0 16.477-2.162 23.981-6.495 6.968-4.022 12.885-9.648 17.397-16.237l95.328-50.114c24.498-12.879 53.487-7.786 71.393 10.963z" fill="#ffffff" data-original="#000000" style=""/><path d="m227.532 167.14c1.668 1.58 4.164 3.945 4.772 5.059.452 2.089-.451 6.401-1.25 10.217-1.719 8.202-4.071 19.434 1.784 30.236 5.918 10.92 17.085 13.592 24.474 15.36 2.235.535 5.58 1.335 6.664 1.995 1.436 1.584 2.81 5.769 4.024 9.474 2.613 7.961 6.191 18.865 16.664 25.292 10.585 6.497 21.591 3.228 28.875 1.065 2.202-.654 5.53-1.636 6.768-1.604 2.035.653 5.317 3.591 8.223 6.191 6.244 5.589 14.795 13.243 27.078 13.573.242.006.482.01.722.01 12.001 0 19.693-8.118 24.816-13.525 1.581-1.668 3.946-4.165 5.06-4.773 2.09-.451 6.4.451 10.218 1.251 8.2 1.717 19.434 4.07 30.235-1.785 10.92-5.919 13.592-17.085 15.36-24.474.535-2.235 1.335-5.579 1.995-6.663 1.584-1.436 5.77-2.81 9.474-4.025 7.961-2.613 18.864-6.191 25.293-16.664 6.497-10.585 3.228-21.592 1.064-28.875-.654-2.203-1.634-5.5-1.604-6.769.653-2.035 3.591-5.317 6.191-8.223 5.589-6.244 13.242-14.795 13.572-27.078.334-12.416-8-20.313-13.515-25.539-1.668-1.581-4.164-3.946-4.772-5.06-.452-2.089.45-6.402 1.25-10.218 1.718-8.201 4.07-19.433-1.785-30.236-5.919-10.919-17.084-13.591-24.473-15.359-2.235-.535-5.579-1.335-6.663-1.996-1.437-1.583-2.81-5.769-4.025-9.473-2.613-7.961-6.192-18.865-16.664-25.292-10.585-6.498-21.593-3.229-28.875-1.065-2.202.654-5.503 1.658-6.769 1.604-2.035-.654-5.317-3.591-8.223-6.191-6.243-5.589-14.794-13.243-27.077-13.573 0 0 0 0-.001 0-12.418-.329-20.312 8-25.538 13.515-1.58 1.668-3.946 4.165-5.06 4.773-2.09.45-6.403-.452-10.217-1.251-8.203-1.718-19.434-4.07-30.236 1.785-10.92 5.919-13.592 17.085-15.359 24.474-.535 2.235-1.336 5.58-1.996 6.664-1.583 1.436-5.769 2.81-9.474 4.025-7.961 2.613-18.865 6.192-25.292 16.664-6.497 10.585-3.229 21.592-1.064 28.875.653 2.203 1.633 5.5 1.604 6.769-.654 2.035-3.592 5.317-6.191 8.221-5.589 6.244-13.243 14.795-13.573 27.078-.334 12.418 8 20.315 13.516 25.541zm22.41-32.609c4.665-5.212 10.472-11.698 12.865-20.63 2.339-8.731-.095-16.926-1.872-22.909-.471-1.585-1.124-3.785-1.399-5.233 1.777-1.103 5.939-2.468 8.354-3.261 6.646-2.182 14.917-4.896 21.455-11.434 6.393-6.393 8.382-14.707 9.835-20.778.385-1.607.918-3.838 1.403-5.23 2.108-.059 6.379.833 8.866 1.354 6.846 1.434 15.365 3.22 24.297.826 8.732-2.339 14.612-8.545 18.906-13.076 1.137-1.2 2.715-2.865 3.831-3.828 1.844.988 5.107 3.91 7.001 5.605 5.212 4.665 11.698 10.471 20.63 12.864 8.729 2.341 16.928-.094 22.91-1.872 1.585-.471 3.784-1.124 5.232-1.399 1.103 1.777 2.469 5.939 3.262 8.354 2.181 6.646 4.896 14.917 11.434 21.455 6.392 6.393 14.706 8.382 20.776 9.834 1.608.385 3.839.919 5.23 1.404.065 2.09-.832 6.377-1.353 8.865-1.435 6.846-3.219 15.367-.826 24.297 2.34 8.733 8.545 14.613 13.076 18.907 1.2 1.137 2.865 2.715 3.828 3.831-.988 1.843-3.909 5.107-5.604 7.001-4.665 5.212-10.471 11.699-12.863 20.629-2.341 8.732.094 16.928 1.871 22.912.471 1.585 1.124 3.784 1.399 5.232-1.777 1.103-5.939 2.468-8.354 3.261-6.646 2.181-14.917 4.896-21.455 11.434-6.393 6.392-8.382 14.706-9.834 20.776-.385 1.608-.919 3.839-1.404 5.231-2.104.077-6.378-.833-8.865-1.353-6.847-1.434-15.364-3.219-24.298-.826-8.732 2.339-14.613 8.545-18.906 13.077-1.137 1.2-2.715 2.865-3.831 3.828-1.843-.988-5.106-3.91-7.001-5.604-5.212-4.666-11.698-10.471-20.63-12.864-2.57-.689-5.093-.964-7.527-.964-5.836 0-11.16 1.582-15.383 2.835-1.585.471-3.784 1.124-5.232 1.399-1.102-1.778-2.468-5.939-3.261-8.354-2.181-6.646-4.896-14.917-11.434-21.456-6.393-6.392-14.707-8.381-20.777-9.834-1.607-.385-3.839-.918-5.23-1.404-.065-2.09.832-6.378 1.354-8.866 1.434-6.846 3.219-15.366.826-24.297-2.34-8.732-8.546-14.613-13.077-18.907-1.2-1.137-2.865-2.714-3.828-3.831.987-1.843 3.909-5.107 5.603-7.001z" fill="#ffffff" data-original="#000000" style=""/><path d="m325.512 194.832c2.362 1.364 4.941 2.012 7.486 2.012 5.184 0 10.226-2.69 13.004-7.502l46-79.674c4.143-7.174 1.684-16.348-5.49-20.49-7.175-4.144-16.348-1.685-20.49 5.49l-46 79.674c-4.143 7.174-1.684 16.348 5.49 20.49z" fill="#ffffff" data-original="#000000" style=""/><path d="m312.38 117.492c7.174 4.142 16.348 1.684 20.49-5.491 4.142-7.174 1.684-16.348-5.49-20.49s-16.348-1.684-20.49 5.49c-4.143 7.175-1.684 16.349 5.49 20.491z" fill="#ffffff" data-original="#000000" style=""/><path d="m382.153 166.507c-4.142 7.174-1.684 16.348 5.49 20.49s16.348 1.684 20.49-5.49 1.684-16.348-5.49-20.49c-7.174-4.143-16.348-1.685-20.49 5.49z" fill="#ffffff" data-original="#000000" style=""/></g></g></svg>
