<?xml version="1.0"?>
<svg xmlns="http://www.w3.org/2000/svg" xmlns:xlink="http://www.w3.org/1999/xlink" xmlns:svgjs="http://svgjs.com/svgjs" version="1.1" width="512" height="512" x="0" y="0" viewBox="0 0 512 512" style="enable-background:new 0 0 512 512" xml:space="preserve"><g><path xmlns="http://www.w3.org/2000/svg" d="m363.5 512h-115c-11.046 0-20-8.954-20-20s8.954-20 20-20h115c44.112 0 80-35.888 80-80v-272c0-44.112-35.888-80-80-80h-115c-11.046 0-20-8.954-20-20s8.954-20 20-20h115c66.168 0 120 53.832 120 120v272c0 66.168-53.832 120-120 120zm-175-20v-472c0-11.046-8.954-20-20-20h-20c-66.168 0-120 53.832-120 120v272c0 66.168 53.832 120 120 120h20c11.046 0 20-8.954 20-20zm-40-20c-44.112 0-80-35.888-80-80v-272c0-44.112 35.888-80 80-80zm227-278c0-33.084-26.916-60-60-60s-60 26.916-60 60 26.916 60 60 60 60-26.916 60-60zm-40 0c0 11.028-8.972 20-20 20s-20-8.972-20-20 8.972-20 20-20 20 8.972 20 20zm69 164c0-45.215-37.302-82-83.152-82h-11.695c-45.851 0-83.152 36.785-83.152 82 0 11.046 8.954 20 20 20s20-8.954 20-20c0-23.159 19.358-42 43.152-42h11.695c23.794 0 43.152 18.841 43.152 42 0 11.046 8.954 20 20 20s20-8.954 20-20z" fill="#ffffff" data-original="#000000" style=""/></g></svg>
