<svg id="Capa_1" enable-background="new 0 0 512 512" height="512" viewBox="0 0 512 512" width="512" xmlns="http://www.w3.org/2000/svg"><path d="m459.407 132.927-128.534-128.533c-2.813-2.814-6.629-4.394-10.607-4.394h-216.899c-30.42 0-55.167 24.748-55.167 55.167v401.666c0 30.419 24.747 55.167 55.167 55.167h305.267c30.419 0 55.167-24.748 55.167-55.167v-313.3c-.001-3.978-1.581-7.794-4.394-10.606zm-124.141-81.714 77.321 77.32h-52.154c-13.877 0-25.167-11.289-25.167-25.166zm73.367 430.787h-305.266c-13.877 0-25.167-11.29-25.167-25.167v-401.666c0-13.877 11.29-25.167 25.167-25.167h201.899v73.367c0 30.419 24.748 55.166 55.167 55.166h73.367v298.3c0 13.877-11.29 25.167-25.167 25.167z"/><path d="m255.999 192.8c-70.285 0-127.466 57.182-127.466 127.467s57.181 127.467 127.466 127.467c70.286 0 127.467-57.182 127.467-127.467s-57.181-127.467-127.467-127.467zm0 224.933c-53.743 0-97.466-43.724-97.466-97.467s43.723-97.467 97.466-97.467c53.744 0 97.467 43.724 97.467 97.467s-43.723 97.467-97.467 97.467z"/><path d="m300.688 275.578c-5.858-5.858-15.355-5.858-21.213 0l-23.476 23.476-23.476-23.476c-5.857-5.857-15.355-5.857-21.213 0s-5.858 15.355 0 21.213l23.476 23.476-23.476 23.476c-5.858 5.857-5.858 15.355 0 21.213 2.929 2.93 6.767 4.393 10.606 4.393 3.838 0 7.678-1.465 10.606-4.393l23.476-23.476 23.476 23.476c2.929 2.929 6.768 4.393 10.606 4.393 3.839 0 7.678-1.465 10.606-4.393 5.858-5.857 5.858-15.355 0-21.213l-23.476-23.476 23.476-23.476c5.86-5.857 5.86-15.356.002-21.213z"/></svg>